<svg xmlns="http://www.w3.org/2000/svg" width="352.76" height="166.535" viewBox="0 0 352.76 166.535"><defs><style>.a{fill:#f9be78;}.b{fill:#f69c5d;}.c{fill:#f5874c;}.d{fill:#fbce97;}.e{fill:#fcdcb6;}.f{fill:#f9ab69;}.g{fill:#f6985a;}.h{fill:#fccd95;}</style></defs><g transform="translate(-158.29 -394.822)"><g transform="translate(158.29 414.295)"><path class="a" d="M241.664,410.315c.012.22.022.445.019.686l-.653,6.387-.06.579-.007.093-.015.107-.014.153h.005l15.307.844s.213,0,.51.765c.621,1.586,1.624,6.428,1.9,21.246.412,21.99,1.454,47.316,1.454,47.316l-11.531,17.855,1.461,46.649-6.636.024-48.66.158-12.325.038,1.916-50.607L159.9,483.67l-.038-.753-1.576-32.574,13-.849-2.315-22.251-.1-.968-.007-.046-.875-8.417,13.1-3.114,8.377-1.994,2.571-.61s.361-2.327,3.7-2.956c1.468-.275,4.486-.794,7.41-1.286,3.718-.624,7.276-1.208,7.276-1.208a10.531,10.531,0,0,1,4.947.263,2.467,2.467,0,0,1,1.678,2.344v.007a.615.615,0,0,1,.005.125l.081-.012.44-.074,9.572-1.662,7.93-1.375S241.226,405.107,241.664,410.315Z" transform="translate(-158.29 -406.152)"/><path class="b" d="M206.386,414.06l-.069.8S206,414.3,206.386,414.06Z" transform="translate(-123.859 -400.468)"/><g transform="translate(22.801)"><path class="b" d="M182.5,409.609l3.56,38.012-4.678,1.279s-2.035-25.644-9.83-36.687Z" transform="translate(-171.556 -403.667)"/><path class="b" d="M198.294,409.256l.521-.086c-.9,3.747.007,41.063.007,41.063l-4.663-.053s2.226-34.118-9.769-42.455c3.718-.624,7.276-1.208,7.276-1.208S198.34,405.26,198.294,409.256Z" transform="translate(-162.332 -406.024)"/><path class="b" d="M217.316,410.315c-.187,1.863-.4,4.285-.648,7.073l-.046.579-.007.093-.024.26-.122,1.418v.007l-.069.8c-1.2,14.3-2.8,35.309-3.338,43.37-.8,11.982-6.892,19.905-18.805,13.107l-2.093-2.117.165-3.9s8.659.1,9.355-2.556c0,0,15.12-44.294,1.114-60.81l7.93-1.375S216.878,405.107,217.316,410.315Z" transform="translate(-156.744 -406.152)"/><path class="b" d="M207.749,414.649l.122-1.418,15.307.844-6.119,39.566s-2.26,22.624-12.764,9.18c0,0,7.939,4.754,9.409-7.219s4.275-23.934,4.275-23.934,2.8-11.959-4.486-15.374C209.583,414.463,208.2,414.355,207.749,414.649Z" transform="translate(-148.024 -401.063)"/></g><path class="b" d="M206.385,413.187l.015-.107-.023.26Z" transform="translate(-123.727 -401.172)"/><path class="b" d="M206.441,412.689h.013l-.06.579Z" transform="translate(-123.714 -401.453)"/><path class="c" d="M169.179,442.789l-4.734-24.955,2.736,24.932,2.664.031Z" transform="translate(-153.866 -397.755)"/><path class="c" d="M179,409.609l4.209,39.353-1.364-1.848-5.417-36.9Z" transform="translate(-145.252 -403.667)"/><path class="c" d="M193.71,450.045l-.2-40.639-2.012-2.815,1.424,43.445Z" transform="translate(-134.42 -405.836)"/><path class="c" d="M256.1,414.167c.62,1.586,1.624,6.428,1.9,21.246.412,21.99,1.454,47.316,1.454,47.316l-11.531,17.855,1.461,46.649-6.636.024,1.148-44.055-19.264-4.885,14.67-1.164,10.16-14.539,2.406-35.279-4.189,16.607s-5.265,7.107-9.914-.528c0,0-.217,12.4-13.53,11.581,0,0,3.874,10.7,2.487,15.352l-3.329-.04s.153-13.32-5.78-18.719L170.24,477.7l23.1,18.92,13.314.82-12.05,5.191-.517,44.781-12.325.038,1.916-50.607-24.431-18.936-.038-.753,59.122-10.223s10.368-5.383,1.372-19.058l-1.777-3.6s7.312,1.416,8.537,10.758-1.518,15.971-6.846,15.909c0,0,9.264,5.436,13.353-2.511,0,0,4.065-5.949,4.3-26.6l-.223,19.317s4.6,6.635,10.668-.249Z" transform="translate(-157.631 -400.391)"/><g transform="translate(0 43.327)"><path class="a" d="M216.922,431.568c4.654.72,6.638,2.075,8.52,12.09.847,4.519-.18,7.518-1.568,9.462a9.054,9.054,0,0,1-3.907,3.132l-60.064,9.3-1.447-29.9-.167-3.425S212.266,430.848,216.922,431.568Z" transform="translate(-158.29 -431.36)"/><path class="b" d="M216.922,431.568c4.654.72,6.638,2.075,8.52,12.09.847,4.519-.18,7.518-1.568,9.462,3.053-17.466-7.3-19.89-7.3-19.89l-58.113,2.42-.167-3.425S212.266,430.848,216.922,431.568Z" transform="translate(-158.29 -431.36)"/><path class="d" d="M161.771,456.818l14.034-3.835s2.152-13.3.184-15.986-14.639-1.5-14.639-1.5Z" transform="translate(-156.091 -428.575)"/><path class="e" d="M200.362,451.154c-.179.641-10.022,2.549-10.022,2.549s-2.688,1.968-3.951-4.043-3.161-14.692.177-15.319,12-.528,12-.528A23.132,23.132,0,0,1,200.362,451.154Z" transform="translate(-139.311 -429.6)"/></g><path class="d" d="M202.238,508.144l7.327.085,1.747-35.954-10.581-6.784Z" transform="translate(-127.785 -363.5)"/><path class="d" d="M183.293,465.182c.658.674,8.659.1,8.659.1l-6.622-3.408-7.9-8.085-4.663-.053Z" transform="translate(-147.885 -371.95)"/><path class="d" d="M193.7,423.541l13.338-1.179s1.408-6.647-1.256-6.676-12.012,1.86-12.012,1.86Z" transform="translate(-132.842 -399.299)"/></g><g transform="translate(283.202 394.822)"><path class="b" d="M282.121,433.924l-.045.591S281.836,434.106,282.121,433.924Z" transform="translate(-194.296 -366.716)"/><path class="b" d="M282.114,433.277l.01-.079-.015.192Z" transform="translate(-194.205 -367.238)"/><path class="b" d="M282.15,432.908h.01l-.039.429Z" transform="translate(-194.197 -367.446)"/><path class="c" d="M280.084,454.132l1.246.416A7.976,7.976,0,0,1,280.084,454.132Z" transform="translate(-195.66 -352.192)"/><path class="a" d="M291,394.827a8.713,8.713,0,0,1,3.97,1.011h.005c3.658,2.032,3.866,6.385,3.866,6.385l3.6,64.567c.017.292-.244.136.033.043a7.818,7.818,0,0,1,2.2,0l2.509-53.278.01-.213v-.017l.067-1.351s1.043-7.631,8.13-6.626a10.73,10.73,0,0,1,4.328,1.482,6.089,6.089,0,0,1,2.985,4.491l-2.02,57.709a14.851,14.851,0,0,0,1.559.548v1.1l6.478-34.9s1.456-5.172,6.21-4.036h.005a1.974,1.974,0,0,1,.313.077c2.7.773,3.845,2.179,4.333,3.305a3.88,3.88,0,0,1,.345,1.734L332.277,481c.1,3.1.218,6.231.34,9.261.411,10.148.861,19.14.993,21.72.027.483.038.743.038.743l-8.377,13.308,1.476,34.5-4.513.07-.4.007-35.994.531-.4.007-8.725.125.988-37.455-9.948-7.526-8.291-6.275-.005-.11-19.276-14.3-.005-.005-.017-.01-2.487-1.846s-12.08-3.293-3.843-8.235,17.569-1.1,17.569-1.1l6.736,3.475,8.516,4.4.275.143,1.492.768-.29-2.317-.493-3.958-.027-.242-.253-2.025-.242-4.206-.132-1.153-.476-4.113-.155-1.344-1.366-11.8-5.349-41.864s-2.195-9.883,6.04-10.981a22.3,22.3,0,0,1,2.344-.2h.017a10.383,10.383,0,0,1,5.83,5.074v.005c4.348,15.868,8.279,54.414,8.279,54.414a16.3,16.3,0,0,1,2.2-.548l-1.7-65.138S283.5,394.58,291,394.827Z" transform="translate(-230.965 -394.822)"/><g transform="translate(31.458 85.325)"><path class="c" d="M249.268,463.14c6.511,1.965,14.659,4.567,17.107,5.962l5.369,4.629,9.335.548-8.785,3.295v34.463l-8.725.125.988-37.455Z" transform="translate(-249.268 -431.042)"/><path class="c" d="M299.822,444.465c.443,13.711,1.186,28.413,1.361,31.833.027.483.038.743.038.743l-8.377,13.308,1.476,34.5-4.513.07V491l-13.726-3.843,9.883-.55,7.977-11.167.26.186Z" transform="translate(-229.996 -444.465)"/></g><path class="d" d="M279.857,503.562h5.421l.986-26.614-7.886-4.928Z" transform="translate(-196.887 -339.334)"/><path class="d" d="M265.475,471.94c.493.493,6.408,0,6.408,0l-4.929-2.465-5.913-5.914h-3.451Z" transform="translate(-211.829 -345.414)"/><path class="c" d="M236.334,453.454c1.026.61,33.75,20.111,35,20.787l-7.428-.1-8.291-6.275-.005-.11Z" transform="translate(-227.107 -352.679)"/><path class="f" d="M269,438.366l18.666-1.647s2.747,14.776,14.276,17.76c0,0,7.686,17.306,3.843,20.888l-10.433-1.791-5.49,5.968s-14.274-20.886-28-20.886c-1.571,0-2.9.024-4.036.065a31.3,31.3,0,0,0-4.491.4l-.493-4.3-.28-2.465-.242-4.572-.132-1.253-.476-4.469-.155-1.463Z" transform="translate(-216.164 -364.707)"/><path class="f" d="M277.688,459.095l-1.323-53.506-2.521,53.506Z" transform="translate(-200.145 -387.083)"/><path class="f" d="M296.984,416.369c-4.562,1.867-13.236,41.682-13.236,41.682v-.423a.039.039,0,0,1,.005-.021l7.021-37.2S292.23,415.233,296.984,416.369Z" transform="translate(-193.027 -379.451)"/><path class="f" d="M258.992,447.261l-1.291,5.55-4.2,18.057s-2.195-12.078-1.1-14.274l-.67-2.009,1.767.911-.29-2.317-.493-3.958Z" transform="translate(-216.038 -357.13)"/><path class="c" d="M259.79,449.816s20.864,14.274,23.609,21.961C283.4,471.777,283.947,457.5,259.79,449.816Z" transform="translate(-210.247 -355.294)"/><path class="c" d="M255.247,447.919,253.936,466s-1.226-6.868-2.042-11.75l1.492.768-.29-2.317-.493-3.958-.028-.242A16.451,16.451,0,0,1,255.247,447.919Z" transform="translate(-215.923 -356.657)"/><path class="c" d="M298.472,418.269a3.88,3.88,0,0,1,.345,1.734l-7.642,44.143c.1,3.1.218,6.231.34,9.261l-3.367,6.5,1.22-17.294Z" transform="translate(-189.864 -377.969)"/><path class="c" d="M264.262,443.108s22.511,17.019,32.394,9.333C296.656,452.441,287.321,456.284,264.262,443.108Z" transform="translate(-207.033 -360.115)"/><path class="c" d="M258.512,449.816s30.747,3.843,36.237,10.981C294.749,460.8,293.65,451.463,258.512,449.816Z" transform="translate(-211.166 -355.294)"/><path class="c" d="M252.529,403.063h.017a10.262,10.262,0,0,1,5.83,4.823v.005c4.348,15.079,8.279,54.665,8.279,54.665l-2.195.55S260.535,414.1,252.529,403.063Z" transform="translate(-215.466 -388.898)"/><path class="c" d="M268.207,395.413c3.658,2.032,3.866,6.385,3.866,6.385l3.628,64.61h-2.195S272.045,409.375,268.207,395.413Z" transform="translate(-204.197 -394.397)"/><path class="c" d="M283.379,401.808A5.618,5.618,0,0,1,286.364,406l-2.02,57.517c-.027.132-.055.261-.088.393-.115.5-2.745-1.024-2.745-1.024S286.271,415.36,283.379,401.808Z" transform="translate(-194.634 -389.8)"/><path class="d" d="M236.791,449.689s11.529,3.843,13.176,6.588l-1.647-5.49S241.182,446.4,236.791,449.689Z" transform="translate(-226.778 -356.265)"/><path class="d" d="M254.28,451.233,249.887,415s3.295,3.293,3.295,4.392,2.745,31.844,2.745,31.844Z" transform="translate(-217.365 -380.32)"/><path class="d" d="M262.665,421.077V401.861l2.745-2.2Z" transform="translate(-208.181 -391.341)"/></g><g transform="translate(435.66 403.975)"><path class="a" d="M371.565,400.65a14.4,14.4,0,0,1,1.574.535c7.827,3.18,4.436,10.937,4.436,10.937l-8.639,36.7-.1.416a.08.08,0,0,1-.005.033l2.42.388,9.348,1.507,5.167.835-2.185,4.371,11.473,2.185L393,465.42c.192,2.217.361,5.113.476,8.9.431,14.281,1.246,30.474,1.432,34.08.027.479.038.737.038.737l-8.336,13.243,1.47,34.324-4.491.07-.394.005-35.816.531-.394.005-8.68.125.983-37.27-18.148-13.733-.033-.552-.11-1.793v-.005l-1.327-22.169,8.26-.639.229-.017,1.071-.081-.366-3.18-.246-2.136-.474-4.092-1.514-13.078L321.3,417.039s-2.185-9.833,6.011-10.926a19.816,19.816,0,0,1,3.391-.191c5.6.218,7.7,3.632,8.627,10.57.672,5.021,3.185,23.164,5.033,36.467.923,6.636,1.676,12.073,1.956,14.066.058.437.1.71.108.792a.107.107,0,0,1,.005.028l1.093-.547,3.355-16.777,8.664-43.316S361.732,397.918,371.565,400.65Z" transform="translate(-319.667 -400.147)"/><path class="b" d="M354.919,434.21l-.045.59S354.634,434.392,354.919,434.21Z" transform="translate(-294.429 -375.664)"/><path class="b" d="M354.911,433.567l.01-.079-.015.191Z" transform="translate(-294.338 -376.183)"/><path class="b" d="M354.947,433.2h.01l-.039.427Z" transform="translate(-294.33 -376.39)"/><g transform="translate(8.26 48.577)"><path class="f" d="M360.736,439.058l-3.278,14.2-32.779,1.093-.206-1.043.229-.017,1.071-.081-.366-3.18-.246-2.136-.474-4.092c2.179-1.36,7.14-2.987,18.289-3.955a.316.316,0,0,0,.07-.005C347.755,439.441,353.568,439.156,360.736,439.058Z" transform="translate(-324.473 -420.757)"/><path class="f" d="M351.622,428.41l.65.1-.1.449,2.42.388,9.348,1.507,5.167.835-2.185,4.371,11.473,2.185-2.061,6.863c.193,2.217.361,5.113.476,8.9.431,14.281,1.246,30.474,1.432,34.08-5.748-1.093-20.453-4.235-25.25-8.594,0,0-7.649,4.917-9.833,0s8.193-1.64,7.375-11.2c0,0,6.009-10.38,8.74-20.759s1.64-14.2,1.64-14.2l-10.38-1.64Z" transform="translate(-311.262 -428.41)"/></g><g transform="translate(0 80.69)"><path class="a" d="M362.822,447.194c3.432.492,4.9,1.471,6.375,8.828.662,3.321-.069,5.536-1.074,6.978a6.655,6.655,0,0,1-2.85,2.339L321.138,472.7l-1.32-22-.151-2.521S359.388,446.7,362.822,447.194Z" transform="translate(-319.667 -447.094)"/><path class="b" d="M362.822,447.194c3.432.492,4.9,1.471,6.375,8.828.662,3.321-.069,5.536-1.074,6.978,2.1-12.882-5.547-14.579-5.547-14.579L319.818,450.7l-.151-2.521S359.388,446.7,362.822,447.194Z" transform="translate(-319.667 -447.094)"/><path class="d" d="M322.441,466.086l10.3-2.943s1.471-9.807,0-11.768-10.789-.981-10.789-.981Z" transform="translate(-318.027 -444.898)"/><path class="e" d="M350.784,461.615c-.127.473-7.356,1.961-7.356,1.961s-1.961,1.471-2.943-2.943-2.451-10.789,0-11.279a70.349,70.349,0,0,1,8.828-.492A17.037,17.037,0,0,1,350.784,461.615Z" transform="translate(-305.668 -445.822)"/></g><path class="d" d="M352.666,503.5h5.394l.981-26.481-7.846-4.9Z" transform="translate(-297.006 -348.417)"/><path class="d" d="M338.355,472.037c.49.492,6.375,0,6.375,0l-4.9-2.451-5.885-5.885h-3.432Z" transform="translate(-311.874 -354.467)"/><path class="c" d="M380.3,437.946v1.091l-4.917,23.492,2.731-15.844-8.193,23.492a15.731,15.731,0,0,1-2.186,3.278s3.278,8.2,3.278,13.111h-3.278a23.887,23.887,0,0,0-2.185-11.473s-4.371,0-4.917-.547c0,0,4.371-.545,4.917-1.638l-35.51,5.462L345.88,492.03l9.288.545-8.742,3.279v34.291l-8.68.125L338.73,493l-18.148-13.733-.033-.552-.11-1.793v-.005l.858-.732,43.7-6.555s5.462-5.464,0-12.019l-1.093-2.731s4.371-.547,5.464,6.009a45.687,45.687,0,0,1,.682,5.1Z" transform="translate(-319.112 -372.979)"/><path class="c" d="M352.891,454.318l1.241.416A7.985,7.985,0,0,1,352.891,454.318Z" transform="translate(-295.787 -361.211)"/><path class="c" d="M373.814,434.106l.225.043-2.061,6.863c.192,2.217.361,5.113.476,8.9.431,14.281,1.246,30.474,1.432,34.08.027.479.038.737.038.737l-8.336,13.243,1.47,34.324-4.491.07v-33.75l-13.657-3.824,9.833-.547,8.2-11.473,1.091-24.584-4.369,8.2s-.273,4.642-6.284,3l-.382-.125c1.851.474,5.228.732,6.392-3.152,1.638-5.464,7.648-24.585,7.648-24.585Z" transform="translate(-298.649 -375.739)"/><path class="c" d="M364.465,431.112l-7.1,27.862-31.686,1.639-1.071-1.606,1.071-.082-.366-3.18,30.959,2.136Z" transform="translate(-316.117 -377.891)"/><path class="g" d="M326.09,403.507c5.6.218,7.7,3.632,8.627,10.57.672,5.021,3.185,23.164,5.033,36.467.923,6.636,1.676,12.073,1.956,14.066l-4.257-2.458-6.555-49.169A17.66,17.66,0,0,0,326.09,403.507Z" transform="translate(-315.05 -397.732)"/><path class="g" d="M355.725,400.751c7.827,3.18,4.436,10.937,4.436,10.937l-8.639,36.7-.1.416a.08.08,0,0,1-.005.033l-4.371,17.482-3.152.273,12.44-49.44S359.406,404.881,355.725,400.751Z" transform="translate(-302.252 -399.713)"/><path class="a" d="M354.545,467.019s2.733,1.64,4.371-3.824,8.2-24.584,8.2-24.584l-8.742-2.731-5.462,27.315S352.361,467.019,354.545,467.019Z" transform="translate(-295.819 -374.464)"/><path class="h" d="M347.478,439.843l7.648,1.639,1.639-4.917-8.741-1.639Z" transform="translate(-299.677 -375.149)"/></g></g></svg>