<svg width="106" height="169" xmlns="http://www.w3.org/2000/svg" xmlns:xlink="http://www.w3.org/1999/xlink" xml:space="preserve" overflow="hidden"><defs><clipPath id="clip0"><rect x="319" y="120" width="106" height="169"/></clipPath></defs><g clip-path="url(#clip0)" transform="translate(-319 -120)"><path d="M244.725 415.511C244.737 415.734 244.747 415.962 244.744 416.206L244.083 422.674 244.022 423.26 244.015 423.355 243.999 423.463 243.985 423.618 243.99 423.618 259.491 424.473C259.491 424.473 259.707 424.473 260.008 425.247 260.637 426.853 261.652 431.757 261.932 446.762 262.349 469.031 263.404 494.678 263.404 494.678L251.727 512.759 253.207 559.998 246.487 560.023 197.21 560.183 184.729 560.221 186.67 508.973 161.925 489.795 161.887 489.033 160.291 456.046 173.455 455.187 171.111 432.654 171.01 431.674 171.003 431.627 170.117 423.103 183.382 419.95 191.866 417.931 194.469 417.313C194.469 417.313 194.835 414.957 198.216 414.32 199.703 414.041 202.759 413.516 205.72 413.017 209.485 412.385 213.088 411.794 213.088 411.794 214.755 411.483 216.473 411.574 218.098 412.06 219.115 412.404 219.8 413.36 219.797 414.434L219.797 414.441C219.803 414.483 219.805 414.525 219.802 414.568L219.884 414.556 220.329 414.481 230.023 412.798 238.053 411.405C238.053 411.405 244.281 410.237 244.725 415.511Z" fill="#F9BE78" transform="matrix(1.00467 0 0 1 23.6396 -271.398)"/><path d="M209 419.304 208.93 420.114C208.93 420.114 208.609 419.547 209 419.304Z" fill="#F69C5D" transform="matrix(1.00467 0 0 1 58.6696 -265.642)"/><path d="M184.811 414.797 188.416 453.29 183.679 454.585C183.679 454.585 181.618 428.616 173.725 417.434Z" fill="#F69C5D" transform="matrix(1.00467 0 0 1 33.3405 -268.882)"/><path d="M200.805 414.439 201.333 414.352C200.421 418.146 201.34 455.935 201.34 455.935L196.618 455.881C196.618 455.881 198.872 421.331 186.725 412.889 190.49 412.257 194.093 411.665 194.093 411.665 194.093 411.665 200.852 410.392 200.805 414.439Z" fill="#F69C5D" transform="matrix(1.00467 0 0 1 42.725 -271.269)"/><path d="M220.068 415.511C219.879 417.398 219.663 419.851 219.412 422.674L219.365 423.26 219.358 423.355 219.334 423.618 219.21 425.054 219.21 425.061 219.141 425.871C217.925 440.352 216.305 461.627 215.76 469.79 214.95 481.924 208.781 489.947 196.717 483.063L194.598 480.919 194.765 476.97C194.765 476.97 203.533 477.071 204.238 474.382 204.238 474.382 219.55 429.527 205.366 412.802L213.397 411.409C213.397 411.409 219.625 410.237 220.068 415.511Z" fill="#F69C5D" transform="matrix(1.00467 0 0 1 48.4102 -271.398)"/><path d="M210.38 419.9 210.504 418.464 226.004 419.319 219.808 459.386C219.808 459.386 217.519 482.297 206.882 468.682 206.882 468.682 214.922 473.497 216.41 461.372 217.899 449.247 220.74 437.135 220.74 437.135 220.74 437.135 223.575 425.024 216.197 421.566 212.237 419.712 210.837 419.603 210.38 419.9Z" fill="#F69C5D" transform="matrix(1.00467 0 0 1 57.2818 -266.245)"/><path d="M208.999 418.42 209.014 418.311 208.991 418.575Z" fill="#F69C5D" transform="matrix(1.00467 0 0 1 58.8039 -266.355)"/><path d="M209.055 417.916 209.069 417.916 209.008 418.502Z" fill="#F69C5D" transform="matrix(1.00467 0 0 1 58.8171 -266.64)"/><path d="M171.322 448.397 166.528 423.126 169.298 448.373 171.996 448.405Z" fill="#F5874C" transform="matrix(1.00467 0 0 1 28.1406 -262.895)"/><path d="M181.267 414.797 185.529 454.648 184.148 452.777 178.662 415.409Z" fill="#F5874C" transform="matrix(1.00467 0 0 1 36.9044 -268.882)"/><path d="M196.163 455.745 195.961 414.591 193.923 411.74 195.365 455.736Z" fill="#F5874C" transform="matrix(1.00467 0 0 1 47.9249 -271.078)"/><path d="M259.343 419.412C259.971 421.018 260.988 425.922 261.267 440.927 261.685 463.196 262.74 488.843 262.74 488.843L251.063 506.924 252.542 554.163 245.822 554.188 246.985 509.575 227.477 504.628 242.333 503.449 252.621 488.726 255.058 453 250.816 469.818C250.816 469.818 245.484 477.015 240.776 469.283 240.776 469.283 240.556 481.84 227.075 481.011 227.075 481.011 230.998 491.846 229.593 496.557L226.222 496.517C226.222 496.517 226.377 483.028 220.369 477.56L172.396 483.75 195.789 502.909 209.271 503.74 197.069 508.997 196.545 554.345 184.064 554.383 186.004 503.135 161.264 483.96 161.225 483.197 221.096 472.844C221.096 472.844 231.595 467.393 222.485 453.545L220.686 449.9C220.686 449.9 228.091 451.333 229.331 460.794 230.572 470.254 227.794 476.967 222.398 476.904 222.398 476.904 231.78 482.409 235.92 474.361 235.92 474.361 240.037 468.337 240.275 447.425L240.049 466.986C240.049 466.986 244.707 473.705 250.852 466.734Z" fill="#F5874C" transform="matrix(1.00467 0 0 1 24.3101 -265.564)"/><path d="M219.669 437.034C224.382 437.763 226.391 439.135 228.297 449.277 229.155 453.853 228.115 456.89 226.709 458.859 225.715 460.267 224.344 461.366 222.753 462.03L161.928 471.448 160.463 441.169 160.294 437.701C160.294 437.701 214.954 436.305 219.669 437.034Z" fill="#F9BE78" transform="matrix(1.00467 0 0 1 23.6396 -253.05)"/><path d="M219.669 437.034C224.382 437.763 226.391 439.135 228.297 449.277 229.155 453.853 228.115 456.89 226.709 458.859 229.801 441.171 219.317 438.717 219.317 438.717L160.468 441.167 160.299 437.699C160.299 437.699 214.954 436.305 219.669 437.034Z" fill="#F69C5D" transform="matrix(1.00467 0 0 1 23.6396 -253.05)"/><path d="M163.82 462.603 178.031 458.72C178.031 458.72 180.211 445.251 178.218 442.531 176.225 439.811 163.393 441.012 163.393 441.012Z" fill="#FBCE97" transform="matrix(1.00467 0 0 1 25.8769 -250.229)"/><path d="M202.899 456.868C202.718 457.517 192.751 459.449 192.751 459.449 192.751 459.449 190.029 461.442 188.75 455.355 187.471 449.268 185.548 440.477 188.929 439.842 192.309 439.207 201.081 439.307 201.081 439.307 203.954 444.699 204.607 451.001 202.899 456.868Z" fill="#FCDCB6" transform="matrix(1.00467 0 0 1 42.9488 -251.267)"/><path d="M204.799 514.579 212.219 514.666 213.988 478.256 203.273 471.386Z" fill="#FBCE97" transform="matrix(1.00467 0 0 1 54.6753 -228.206)"/><path d="M185.614 471.073C186.281 471.756 194.383 471.175 194.383 471.175L187.677 467.723 179.677 459.536 174.955 459.482Z" fill="#FBCE97" transform="matrix(1.00467 0 0 1 34.2256 -236.763)"/><path d="M196.153 428.905 209.66 427.711C209.66 427.711 211.086 420.98 208.388 420.95 205.69 420.921 196.224 422.834 196.224 422.834Z" fill="#FBCE97" transform="matrix(1.00467 0 0 1 49.5303 -264.458)"/><path d="M285.694 439.419 285.648 440.018C285.648 440.018 285.405 439.604 285.694 439.419Z" fill="#F69C5D" transform="matrix(1.00467 0 0 1 114.092 -251.182)"/><path d="M285.687 438.764 285.697 438.684 285.682 438.879Z" fill="#F69C5D" transform="matrix(1.00467 0 0 1 114.185 -251.711)"/><path d="M285.723 438.391 285.733 438.391 285.694 438.825Z" fill="#F69C5D" transform="matrix(1.00467 0 0 1 114.193 -251.922)"/><path d="M283.631 459.883 284.893 460.305C284.461 460.199 284.039 460.058 283.631 459.883Z" fill="#F5874C" transform="matrix(1.00467 0 0 1 112.704 -236.474)"/><path d="M294.685 399.827C296.088 399.844 297.466 400.195 298.706 400.851L298.711 400.851C302.415 402.909 302.626 407.317 302.626 407.317L306.271 472.702C306.289 472.997 306.024 472.839 306.305 472.745 307.044 472.64 307.794 472.64 308.533 472.745L311.073 418.792 311.083 418.577 311.083 418.56 311.151 417.191C311.151 417.191 312.208 409.464 319.384 410.482 320.936 410.661 322.431 411.173 323.767 411.982 325.428 412.945 326.545 414.626 326.79 416.53L324.744 474.97C325.26 475.184 325.787 475.369 326.323 475.525L326.323 476.639 332.883 441.297C332.883 441.297 334.358 436.059 339.172 437.21L339.177 437.21C339.284 437.227 339.39 437.253 339.494 437.288 342.228 438.071 343.387 439.494 343.882 440.635 344.132 441.185 344.251 441.786 344.231 442.391L336.485 487.092C336.586 490.231 336.706 493.402 336.829 496.47 337.246 506.746 337.701 515.852 337.835 518.465 337.862 518.954 337.874 519.217 337.874 519.217L329.39 532.694 330.885 567.631 326.315 567.702 325.91 567.709 289.46 568.247 289.055 568.254 280.219 568.38 281.22 530.451 271.146 522.83 262.75 516.475 262.745 516.364 243.225 501.883 243.22 501.878 243.203 501.867 240.684 499.998C240.684 499.998 228.451 496.663 236.792 491.659 245.134 486.654 254.584 490.545 254.584 490.545L261.405 494.064 270.029 498.52 270.308 498.664 271.818 499.442 271.525 497.096 271.025 493.088 270.998 492.843 270.742 490.792 270.497 486.533 270.363 485.365 269.881 481.2 269.724 479.839 268.341 467.889 262.924 425.495C262.924 425.495 260.701 415.487 269.041 414.375 269.828 414.266 270.62 414.198 271.414 414.173L271.432 414.173C273.987 415.062 276.102 416.902 277.335 419.311L277.335 419.316C281.738 435.385 285.719 474.419 285.719 474.419 286.448 474.183 287.193 473.997 287.947 473.864L286.226 407.901C286.226 407.901 287.09 399.577 294.685 399.827Z" fill="#F9BE78" transform="matrix(1.00467 0 0 1 76.7853 -279.644)"/><path d="M252.425 469.005C259.018 470.995 267.27 473.63 269.749 475.043L275.186 479.731 284.639 480.286 275.742 483.622 275.742 518.522 266.907 518.648 267.908 480.719Z" fill="#F5874C" transform="matrix(1.00467 0 0 1 90.1691 -229.917)"/><path d="M303.619 450.094C304.068 463.979 304.82 478.867 304.997 482.33 305.025 482.819 305.036 483.082 305.036 483.082L296.553 496.559 298.047 531.496 293.477 531.567 293.477 497.218 279.577 493.327 289.586 492.77 297.664 481.461 297.927 481.65Z" fill="#F5874C" transform="matrix(1.00467 0 0 1 109.776 -243.51)"/><path d="M283.401 509.939 288.891 509.939 289.889 482.988 281.904 477.998Z" fill="#FBCE97" transform="matrix(1.00467 0 0 1 111.456 -223.454)"/><path d="M268.837 477.917C269.336 478.416 275.326 477.917 275.326 477.917L270.335 475.421 264.347 469.432 260.852 469.432Z" fill="#FBCE97" transform="matrix(1.00467 0 0 1 96.2542 -229.611)"/><path d="M239.327 459.197C240.366 459.815 273.505 479.562 274.77 480.247L267.248 480.146 258.852 473.791 258.847 473.68Z" fill="#F5874C" transform="matrix(1.00467 0 0 1 80.7104 -236.968)"/><path d="M272.407 443.918 291.309 442.25C291.309 442.25 294.091 457.213 305.766 460.235 305.766 460.235 313.549 477.76 309.658 481.387L299.092 479.574 293.533 485.617C293.533 485.617 279.078 464.467 265.178 464.467 263.587 464.467 262.242 464.491 261.091 464.533 259.568 464.558 258.048 464.693 256.543 464.938L256.044 460.583 255.761 458.087 255.516 453.457 255.382 452.188 254.9 447.663 254.743 446.181Z" fill="#F9AB69" transform="matrix(1.00467 0 0 1 91.8438 -249.148)"/><path d="M281.205 464.909 279.865 410.726 277.312 464.909Z" fill="#F9AB69" transform="matrix(1.00467 0 0 1 108.141 -271.807)"/><path d="M300.745 421.642C296.125 423.533 287.342 463.852 287.342 463.852L287.342 463.424C287.341 463.416 287.343 463.409 287.347 463.402L294.457 425.731C294.457 425.731 295.931 420.492 300.745 421.642Z" fill="#F9AB69" transform="matrix(1.00467 0 0 1 115.383 -264.079)"/><path d="M262.272 452.925 260.965 458.546 256.711 476.831C256.711 476.831 254.489 464.6 255.598 462.377L254.919 460.342 256.708 461.265 256.415 458.918 255.916 454.91Z" fill="#F9AB69" transform="matrix(1.00467 0 0 1 91.972 -241.475)"/><path d="M263.08 455.513C263.08 455.513 284.208 469.967 286.988 477.752 286.989 477.752 287.543 463.294 263.08 455.513Z" fill="#F5874C" transform="matrix(1.00467 0 0 1 97.8637 -239.616)"/><path d="M258.48 453.592 257.152 471.902C257.152 471.902 255.91 464.947 255.084 460.003L256.595 460.781 256.301 458.434 255.802 454.426 255.774 454.181C256.658 453.91 257.563 453.713 258.48 453.592Z" fill="#F5874C" transform="matrix(1.00467 0 0 1 92.089 -240.996)"/><path d="M302.252 423.566C302.502 424.117 302.622 424.718 302.601 425.322L294.863 470.024C294.964 473.163 295.083 476.334 295.207 479.402L291.797 485.985 293.033 468.472Z" fill="#F5874C" transform="matrix(1.00467 0 0 1 118.601 -262.578)"/><path d="M267.609 448.72C267.609 448.72 290.405 465.954 300.413 458.171 300.413 458.171 290.96 462.063 267.609 448.72Z" fill="#F5874C" transform="matrix(1.00467 0 0 1 101.134 -244.498)"/><path d="M261.786 455.513C261.786 455.513 292.922 459.404 298.482 466.633 298.482 466.636 297.369 457.181 261.786 455.513Z" fill="#F5874C" transform="matrix(1.00467 0 0 1 96.9287 -239.616)"/><path d="M255.727 408.168 255.744 408.168C258.263 408.984 260.374 410.731 261.648 413.052L261.648 413.057C266.051 428.327 270.032 468.414 270.032 468.414L267.809 468.971C267.809 468.971 263.835 419.344 255.727 408.168Z" fill="#F5874C" transform="matrix(1.00467 0 0 1 92.5539 -273.645)"/><path d="M271.604 400.421C275.308 402.478 275.519 406.887 275.519 406.887L279.193 472.315 276.97 472.315C276.97 472.315 275.49 414.56 271.604 400.421Z" fill="#F5874C" transform="matrix(1.00467 0 0 1 104.019 -279.214)"/><path d="M286.968 406.897C288.602 407.74 289.728 409.321 289.991 411.142L287.945 469.387C287.918 469.521 287.889 469.652 287.856 469.785 287.74 470.292 285.076 468.748 285.076 468.748 285.076 468.748 289.896 420.62 286.968 406.897Z" fill="#F5874C" transform="matrix(1.00467 0 0 1 113.748 -274.559)"/><path d="M239.79 455.384C239.79 455.384 251.465 459.276 253.133 462.056L251.465 456.496C251.465 456.496 244.236 452.053 239.79 455.384Z" fill="#FBCE97" transform="matrix(1.00467 0 0 1 81.0451 -240.599)"/><path d="M257.5 456.948 253.052 420.256C253.052 420.256 256.388 423.59 256.388 424.703 256.388 425.816 259.168 456.951 259.168 456.951Z" fill="#FBCE97" transform="matrix(1.00467 0 0 1 90.6219 -264.959)"/><path d="M265.992 426.41 265.992 406.95 268.771 404.723Z" fill="#FBCE97" transform="matrix(1.00467 0 0 1 99.9656 -276.119)"/><path d="M376.271 405.724C376.812 405.874 377.344 406.055 377.865 406.266 385.791 409.486 382.357 417.341 382.357 417.341L373.608 454.506 373.507 454.927C373.508 454.939 373.506 454.95 373.502 454.961L375.953 455.354 385.419 456.88 390.652 457.725 388.439 462.152 400.057 464.364 397.977 471.314C398.172 473.559 398.343 476.492 398.459 480.327 398.896 494.789 399.721 511.187 399.909 514.839 399.937 515.324 399.948 515.585 399.948 515.585L391.506 528.996 392.995 563.754 388.447 563.825 388.048 563.83 351.778 564.368 351.379 564.373 342.589 564.5 343.585 526.758 325.207 512.851 325.174 512.292 325.062 510.476 325.062 510.471 323.719 488.021 332.083 487.374 332.315 487.357 333.4 487.275 333.029 484.055 332.78 481.892 332.3 477.748 330.767 464.504 325.369 422.321C325.369 422.321 323.156 412.363 331.456 411.256 332.593 411.094 333.742 411.029 334.89 411.063 340.561 411.284 342.688 414.741 343.626 421.767 344.307 426.851 346.852 445.224 348.723 458.696 349.658 465.416 350.42 470.921 350.704 472.94 350.763 473.382 350.805 473.659 350.813 473.742 350.816 473.751 350.818 473.76 350.818 473.77L351.925 473.216 355.323 456.227 364.096 412.362C364.096 412.362 366.313 402.957 376.271 405.724Z" fill="#F9BE78" transform="matrix(1.00467 0 0 1 141.65 -275.768)"/><path d="M359.414 439.709 359.368 440.307C359.368 440.307 359.125 439.893 359.414 439.709Z" fill="#F69C5D" transform="matrix(1.00467 0 0 1 167.327 -250.975)"/><path d="M359.406 439.058 359.416 438.978 359.401 439.171Z" fill="#F69C5D" transform="matrix(1.00467 0 0 1 167.42 -251.5)"/><path d="M359.442 438.686 359.452 438.686 359.413 439.119Z" fill="#F69C5D" transform="matrix(1.00467 0 0 1 167.428 -251.71)"/><path d="M365.305 444.618 361.985 458.998 328.791 460.105 328.582 459.049 328.814 459.032 329.899 458.95 329.528 455.729 329.279 453.566 328.799 449.423C331.006 448.045 336.029 446.398 347.32 445.417 347.343 445.418 347.367 445.417 347.391 445.412 352.159 445.006 358.046 444.718 365.305 444.618Z" fill="#F9AB69" transform="matrix(1.00467 0 0 1 145.164 -247.447)"/><path d="M356.075 433.836 356.733 433.937 356.632 434.392 359.083 434.784 368.549 436.311 373.782 437.156 371.569 441.582 383.187 443.795 381.1 450.745C381.296 452.99 381.466 455.923 381.582 459.758 382.019 474.22 382.844 490.618 383.032 494.269 377.211 493.163 362.32 489.981 357.462 485.567 357.462 485.567 349.717 490.546 347.505 485.567 345.293 480.587 355.802 483.906 354.973 474.225 354.973 474.225 361.058 463.713 363.824 453.203 366.59 442.692 365.485 438.823 365.485 438.823L354.973 437.162Z" fill="#F9AB69" transform="matrix(1.00467 0 0 1 158.605 -255.197)"/><path d="M367.417 452.858C370.892 453.356 372.379 454.347 373.873 461.797 374.543 465.16 373.803 467.403 372.785 468.864 372.065 469.909 371.065 470.73 369.899 471.232L325.205 478.687 323.868 456.408 323.715 453.855C323.715 453.855 363.939 452.357 367.417 452.858Z" fill="#F9BE78" transform="matrix(1.00467 0 0 1 141.65 -241.597)"/><path d="M367.417 452.858C370.892 453.356 372.379 454.347 373.873 461.797 374.543 465.16 373.803 467.403 372.785 468.864 374.912 455.819 367.168 454.1 367.168 454.1L323.868 456.408 323.715 453.855C323.715 453.855 363.939 452.357 367.417 452.858Z" fill="#F69C5D" transform="matrix(1.00467 0 0 1 141.65 -241.597)"/><path d="M326.525 471.989 336.955 469.009C336.955 469.009 338.445 459.077 336.955 457.091 335.465 455.106 326.029 456.098 326.029 456.098Z" fill="#FBCE97" transform="matrix(1.00467 0 0 1 143.319 -239.374)"/><path d="M355.227 467.461C355.098 467.94 347.777 469.447 347.777 469.447 347.777 469.447 345.792 470.937 344.797 466.467 343.803 461.997 342.315 455.541 344.797 455.045 347.764 454.692 350.749 454.525 353.737 454.547 355.898 458.493 356.433 463.127 355.227 467.461Z" fill="#FCDCB6" transform="matrix(1.00467 0 0 1 155.893 -240.309)"/><path d="M357.132 509.877 362.595 509.877 363.588 483.06 355.643 478.098Z" fill="#FBCE97" transform="matrix(1.00467 0 0 1 164.706 -223.383)"/><path d="M342.64 478.015C343.136 478.513 349.096 478.015 349.096 478.015L344.134 475.533 338.174 469.574 334.699 469.574Z" fill="#FBCE97" transform="matrix(1.00467 0 0 1 149.579 -229.509)"/><path d="M385.116 443.492 385.116 444.597 380.137 468.387 382.903 452.342 374.606 476.132C374.01 477.326 373.266 478.442 372.392 479.451 372.392 479.451 375.712 487.755 375.712 492.728L372.392 492.728C372.627 488.732 371.867 484.74 370.18 481.11 370.18 481.11 365.753 481.11 365.2 480.556 365.2 480.556 369.627 480.004 370.18 478.897L334.22 484.428 350.26 498.261 359.666 498.813 350.813 502.134 350.813 536.859 342.023 536.986 343.02 499.244 324.642 485.337 324.609 484.778 324.497 482.962 324.497 482.957 325.366 482.216 369.62 475.578C369.62 475.578 375.151 470.044 369.62 463.406L368.513 460.641C368.513 460.641 372.939 460.087 374.046 466.726 374.373 468.433 374.604 470.157 374.737 471.891Z" fill="#F5874C" transform="matrix(1.00467 0 0 1 142.215 -248.256)"/><path d="M357.36 460.072 358.617 460.493C358.187 460.387 357.767 460.246 357.36 460.072Z" fill="#F5874C" transform="matrix(1.00467 0 0 1 165.946 -236.339)"/><path d="M378.548 439.604 378.776 439.647 376.689 446.597C376.883 448.842 377.055 451.775 377.171 455.61 377.607 470.072 378.433 486.47 378.621 490.122 378.648 490.607 378.66 490.868 378.66 490.868L370.218 504.279 371.707 539.037 367.159 539.108 367.159 504.931 353.329 501.058 363.286 500.504 371.59 488.886 372.695 463.991 368.271 472.295C368.271 472.295 367.994 476.995 361.907 475.333L361.52 475.206C363.395 475.686 366.814 475.947 367.993 472.014 369.652 466.481 375.738 447.118 375.738 447.118Z" fill="#F5874C" transform="matrix(1.00467 0 0 1 163.034 -251.051)"/><path d="M369.081 436.572 361.891 464.787 329.804 466.446 328.719 464.82 329.804 464.737 329.433 461.517 360.784 463.68Z" fill="#F5874C" transform="matrix(1.00467 0 0 1 145.262 -253.23)"/><path d="M330.22 408.617C335.891 408.838 338.017 412.295 338.956 419.321 339.637 424.406 342.181 442.778 344.053 456.25 344.987 462.97 345.75 468.476 346.034 470.494L341.723 468.005 335.085 418.213C334.486 414.591 332.788 411.241 330.22 408.617Z" fill="#F6985A" transform="matrix(1.00467 0 0 1 146.348 -273.322)"/><path d="M360.23 405.826C368.156 409.047 364.722 416.902 364.722 416.902L355.974 454.067 355.873 454.488C355.873 454.499 355.872 454.511 355.868 454.521L351.441 472.225 348.249 472.501 360.847 422.435C360.847 422.435 363.958 410.009 360.23 405.826Z" fill="#F6985A" transform="matrix(1.00467 0 0 1 159.368 -275.328)"/><path d="M359.035 472.934C359.035 472.934 361.803 474.594 363.461 469.061 365.12 463.528 371.765 444.166 371.765 444.166L362.913 441.4 357.381 469.061C357.381 469.061 356.823 472.934 359.035 472.934Z" fill="#F9BE78" transform="matrix(1.00467 0 0 1 165.913 -249.76)"/><path d="M351.879 445.413 359.624 447.073 361.283 442.094 352.432 440.434Z" fill="#FCCD95" transform="matrix(1.00467 0 0 1 161.988 -250.453)"/></g></svg>