<svg width="105" height="167" xmlns="http://www.w3.org/2000/svg" xmlns:xlink="http://www.w3.org/1999/xlink" xml:space="preserve" overflow="hidden"><defs><clipPath id="clip0"><rect x="187" y="120" width="105" height="167"/></clipPath></defs><g clip-path="url(#clip0)" transform="translate(-187 -120)"><path d="M241.196 409.521C241.208 409.74 241.218 409.965 241.215 410.206L240.564 416.58 240.504 417.158 240.497 417.251 240.482 417.358 240.468 417.51 240.473 417.51 255.75 418.353C255.75 418.353 255.963 418.353 256.259 419.116 256.879 420.699 257.88 425.532 258.155 440.321 258.567 462.269 259.607 487.546 259.607 487.546L248.098 505.366 249.556 551.925 242.933 551.949 194.367 552.106 182.066 552.144 183.978 501.635 159.591 482.734 159.553 481.982 157.98 449.471 170.954 448.624 168.644 426.416 168.544 425.45 168.537 425.404 167.664 417.003 180.739 413.895 189.099 411.905 191.665 411.296C191.665 411.296 192.026 408.974 195.358 408.346 196.823 408.072 199.835 407.554 202.754 407.063 206.465 406.44 210.016 405.857 210.016 405.857 211.659 405.551 213.352 405.641 214.953 406.119 215.956 406.458 216.631 407.4 216.628 408.459L216.628 408.466C216.634 408.507 216.635 408.549 216.633 408.591L216.714 408.579 217.153 408.505 226.706 406.846 234.621 405.474C234.621 405.474 240.759 404.323 241.196 409.521Z" fill="#F9BE78" transform="matrix(1 0 0 1.00262 29.0164 -266.766)"/><path d="M205.987 413.259 205.918 414.057C205.918 414.057 205.601 413.498 205.987 413.259Z" fill="#F69C5D" transform="matrix(1 0 0 1.00262 63.3807 -261.078)"/><path d="M182.147 408.816 185.7 446.755 181.031 448.031C181.031 448.031 179 422.437 171.22 411.415Z" fill="#F69C5D" transform="matrix(1 0 0 1.00262 38.5329 -264.28)"/><path d="M197.91 408.464 198.43 408.378C197.532 412.118 198.437 449.362 198.437 449.362L193.783 449.309C193.783 449.309 196.005 415.257 184.033 406.936 187.744 406.313 191.295 405.73 191.295 405.73 191.295 405.73 197.956 404.476 197.91 408.464Z" fill="#F69C5D" transform="matrix(1 0 0 1.00262 47.7391 -266.638)"/><path d="M216.895 409.521C216.709 411.38 216.496 413.798 216.249 416.58L216.203 417.158 216.196 417.251 216.172 417.51 216.05 418.926 216.05 418.933 215.981 419.731C214.783 434.003 213.187 454.972 212.65 463.017 211.851 474.976 205.771 482.884 193.881 476.099L191.792 473.986 191.957 470.093C191.957 470.093 200.599 470.193 201.294 467.542 201.294 467.542 216.384 423.334 202.406 406.85L210.32 405.478C210.32 405.478 216.458 404.323 216.895 409.521Z" fill="#F69C5D" transform="matrix(1 0 0 1.00262 53.3162 -266.766)"/><path d="M207.347 413.846 207.469 412.431 222.746 413.274 216.639 452.763C216.639 452.763 214.383 475.343 203.9 461.925 203.9 461.925 211.823 466.67 213.29 454.72 214.758 442.77 217.557 430.833 217.557 430.833 217.557 430.833 220.352 418.897 213.08 415.488 209.177 413.661 207.797 413.553 207.347 413.846Z" fill="#F69C5D" transform="matrix(1 0 0 1.00262 62.0194 -261.674)"/><path d="M205.986 412.387 206.001 412.28 205.978 412.54Z" fill="#F69C5D" transform="matrix(1 0 0 1.00262 63.5125 -261.783)"/><path d="M206.041 411.89 206.054 411.89 205.995 412.468Z" fill="#F69C5D" transform="matrix(1 0 0 1.00262 63.5254 -262.064)"/><path d="M168.852 441.932 164.127 417.025 166.857 441.909 169.516 441.94Z" fill="#F5874C" transform="matrix(1 0 0 1.00262 33.4318 -258.364)"/><path d="M178.654 408.816 182.854 448.093 181.493 446.249 176.087 409.42Z" fill="#F5874C" transform="matrix(1 0 0 1.00262 42.0291 -264.28)"/><path d="M193.335 449.174 193.135 408.614 191.127 405.804 192.549 449.165Z" fill="#F5874C" transform="matrix(1 0 0 1.00262 52.8402 -266.45)"/><path d="M255.604 413.365C256.223 414.948 257.225 419.781 257.501 434.57 257.912 456.518 258.952 481.795 258.952 481.795L247.443 499.615 248.901 546.174 242.278 546.198 243.424 502.228 224.197 497.353 238.839 496.191 248.979 481.68 251.381 446.469 247.2 463.044C247.2 463.044 241.945 470.137 237.305 462.517 237.305 462.517 237.088 474.893 223.801 474.076 223.801 474.076 227.668 484.755 226.283 489.398L222.961 489.358C222.961 489.358 223.113 476.064 217.192 470.675L169.911 476.775 192.966 495.659 206.254 496.477 194.227 501.658 193.711 546.353 181.41 546.39 183.322 495.881 158.939 476.982 158.901 476.23 217.908 466.027C217.908 466.027 228.256 460.655 219.278 447.006L217.504 443.413C217.504 443.413 224.802 444.826 226.025 454.15 227.247 463.474 224.51 470.09 219.192 470.029 219.192 470.029 228.438 475.454 232.519 467.522 232.519 467.522 236.576 461.585 236.811 440.974L236.588 460.253C236.588 460.253 241.179 466.876 247.236 460.005Z" fill="#F5874C" transform="matrix(1 0 0 1.00262 29.6741 -261.001)"/><path d="M216.502 430.733C221.147 431.451 223.127 432.804 225.006 442.799 225.851 447.31 224.826 450.303 223.441 452.243 222.461 453.631 221.109 454.714 219.541 455.369L159.594 464.651 158.149 434.809 157.983 431.39C157.983 431.39 211.855 430.014 216.502 430.733Z" fill="#F9BE78" transform="matrix(1 0 0 1.00262 29.0164 -248.635)"/><path d="M216.502 430.733C221.147 431.451 223.127 432.804 225.006 442.799 225.851 447.31 224.826 450.303 223.441 452.243 226.488 434.811 216.155 432.392 216.155 432.392L158.154 434.807 157.988 431.388C157.988 431.388 211.855 430.014 216.502 430.733Z" fill="#F69C5D" transform="matrix(1 0 0 1.00262 29.0164 -248.635)"/><path d="M161.458 455.934 175.465 452.106C175.465 452.106 177.613 438.832 175.648 436.151 173.684 433.47 161.038 434.654 161.038 434.654Z" fill="#FBCE97" transform="matrix(1 0 0 1.00262 31.2111 -245.848)"/><path d="M199.974 450.281C199.796 450.921 189.972 452.825 189.972 452.825 189.972 452.825 187.289 454.789 186.028 448.79 184.768 442.79 182.873 434.126 186.205 433.5 189.536 432.875 198.182 432.973 198.182 432.973 201.014 438.288 201.657 444.499 199.974 450.281Z" fill="#FCDCB6" transform="matrix(1 0 0 1.00262 47.9586 -246.874)"/><path d="M201.847 507.161 209.159 507.245 210.903 471.361 200.342 464.59Z" fill="#FBCE97" transform="matrix(1 0 0 1.00262 59.4623 -224.085)"/><path d="M182.938 464.282C183.595 464.954 191.58 464.382 191.58 464.382L184.971 460.98 177.087 452.911 172.433 452.858Z" fill="#FBCE97" transform="matrix(1 0 0 1.00262 39.4012 -232.541)"/><path d="M193.325 422.721 206.637 421.545C206.637 421.545 208.043 414.91 205.384 414.881 202.725 414.853 193.395 416.738 193.395 416.738Z" fill="#FBCE97" transform="matrix(1 0 0 1.00262 54.4151 -259.909)"/><path d="M281.575 433.084 281.53 433.674C281.53 433.674 281.291 433.266 281.575 433.084Z" fill="#F69C5D" transform="matrix(1 0 0 1.00262 117.75 -246.79)"/><path d="M281.568 432.438 281.578 432.36 281.563 432.551Z" fill="#F69C5D" transform="matrix(1 0 0 1.00262 117.841 -247.312)"/><path d="M281.604 432.07 281.614 432.07 281.575 432.498Z" fill="#F69C5D" transform="matrix(1 0 0 1.00262 117.849 -247.52)"/><path d="M279.542 453.253 280.785 453.668C280.36 453.564 279.944 453.425 279.542 453.253Z" fill="#F5874C" transform="matrix(1 0 0 1.00262 116.389 -232.256)"/><path d="M290.437 394.063C291.819 394.079 293.177 394.425 294.399 395.072L294.404 395.072C298.055 397.1 298.263 401.445 298.263 401.445L301.856 465.887C301.873 466.178 301.612 466.022 301.889 465.929 302.617 465.826 303.356 465.826 304.084 465.929L306.588 412.755 306.598 412.542 306.598 412.525 306.665 411.177C306.665 411.177 307.706 403.56 314.78 404.563 316.309 404.74 317.782 405.245 319.099 406.043 320.736 406.992 321.837 408.649 322.078 410.525L320.062 468.122C320.57 468.333 321.09 468.516 321.618 468.669L321.618 469.767 328.084 434.935C328.084 434.935 329.537 429.773 334.282 430.906L334.287 430.906C334.393 430.923 334.497 430.949 334.599 430.983 337.294 431.755 338.437 433.158 338.924 434.282 339.17 434.825 339.288 435.417 339.268 436.012L331.634 480.069C331.734 483.163 331.851 486.288 331.973 489.312 332.383 499.44 332.833 508.415 332.964 510.99 332.991 511.472 333.002 511.732 333.002 511.732L324.641 525.014 326.115 559.447 321.61 559.517 321.211 559.524 285.287 560.054 284.888 560.061 276.179 560.186 277.166 522.803 267.237 515.292 258.962 509.029 258.957 508.919 239.718 494.647 239.713 494.642 239.696 494.632 237.214 492.789C237.214 492.789 225.157 489.503 233.378 484.57 241.599 479.638 250.913 483.472 250.913 483.472L257.636 486.941 266.136 491.332 266.41 491.475 267.9 492.241 267.61 489.929 267.118 485.979 267.091 485.737 266.839 483.716 266.597 479.518 266.465 478.367 265.99 474.262 265.836 472.921 264.472 461.144 259.133 419.361C259.133 419.361 256.943 409.497 265.162 408.401 265.938 408.293 266.718 408.227 267.501 408.201L267.518 408.201C270.037 409.078 272.121 410.892 273.337 413.266L273.337 413.271C277.677 429.108 281.6 467.579 281.6 467.579 282.318 467.346 283.052 467.163 283.796 467.032L282.099 402.02C282.099 402.02 282.951 393.816 290.437 394.063Z" fill="#F9BE78" transform="matrix(1 0 0 1.00262 81.1523 -274.915)"/><path d="M248.786 462.244C255.284 464.205 263.416 466.802 265.859 468.194L271.218 472.814 280.535 473.361 271.767 476.65 271.767 511.046 263.059 511.171 264.045 473.788Z" fill="#F5874C" transform="matrix(1 0 0 1.00262 94.2818 -225.776)"/><path d="M299.242 443.605C299.684 457.289 300.425 471.963 300.6 475.376 300.627 475.858 300.638 476.118 300.638 476.118L292.277 489.4 293.75 523.833 289.246 523.903 289.246 490.05 275.547 486.214 285.411 485.665 293.372 474.52 293.632 474.705Z" fill="#F5874C" transform="matrix(1 0 0 1.00262 113.516 -239.208)"/><path d="M279.315 502.587 284.726 502.587 285.71 476.025 277.839 471.106Z" fill="#FBCE97" transform="matrix(1 0 0 1.00262 115.164 -219.389)"/><path d="M264.961 471.027C265.453 471.519 271.357 471.027 271.357 471.027L266.437 468.566 260.536 462.664 257.091 462.664Z" fill="#FBCE97" transform="matrix(1 0 0 1.00262 100.251 -225.473)"/><path d="M235.877 452.576C236.901 453.185 269.561 472.648 270.809 473.323L263.395 473.223 255.12 466.96 255.115 466.851Z" fill="#F5874C" transform="matrix(1 0 0 1.00262 85.0028 -232.743)"/><path d="M268.479 437.518 287.109 435.874C287.109 435.874 289.851 450.621 301.358 453.599 301.358 453.599 309.029 470.872 305.193 474.447L294.78 472.659 289.301 478.616C289.301 478.616 275.055 457.77 261.355 457.77 259.787 457.77 258.461 457.794 257.327 457.835 255.825 457.86 254.327 457.994 252.845 458.234L252.353 453.943 252.073 451.482 251.832 446.919 251.7 445.669 251.225 441.208 251.07 439.748Z" fill="#F9AB69" transform="matrix(1 0 0 1.00262 95.9246 -244.779)"/><path d="M277.151 458.206 275.83 404.804 273.314 458.206Z" fill="#F9AB69" transform="matrix(1 0 0 1.00262 111.913 -267.171)"/><path d="M296.409 415.563C291.856 417.427 283.199 457.164 283.199 457.164L283.199 456.742C283.198 456.735 283.2 456.728 283.204 456.721L290.211 419.593C290.211 419.593 291.664 414.429 296.409 415.563Z" fill="#F9AB69" transform="matrix(1 0 0 1.00262 119.017 -259.533)"/><path d="M258.491 446.395 257.202 451.935 253.01 469.957C253.01 469.957 250.82 457.902 251.912 455.71L251.244 453.705 253.007 454.614 252.718 452.302 252.226 448.352Z" fill="#F9AB69" transform="matrix(1 0 0 1.00262 96.0504 -237.197)"/><path d="M259.287 448.945C259.287 448.945 280.111 463.192 282.85 470.864 282.852 470.864 283.397 456.615 259.287 448.945Z" fill="#F5874C" transform="matrix(1 0 0 1.00262 101.83 -235.36)"/><path d="M254.753 447.052 253.445 465.098C253.445 465.098 252.221 458.243 251.406 453.371L252.896 454.137 252.606 451.825 252.114 447.875 252.086 447.633C252.957 447.366 253.849 447.171 254.753 447.052Z" fill="#F5874C" transform="matrix(1 0 0 1.00262 96.1651 -236.724)"/><path d="M297.894 417.459C298.141 418.002 298.259 418.594 298.239 419.19L290.611 463.248C290.711 466.342 290.829 469.467 290.951 472.491L287.59 478.978 288.808 461.718Z" fill="#F5874C" transform="matrix(1 0 0 1.00262 122.174 -258.05)"/><path d="M263.751 442.25C263.751 442.25 286.218 459.236 296.082 451.565 296.082 451.565 286.765 455.401 263.751 442.25Z" fill="#F5874C" transform="matrix(1 0 0 1.00262 105.038 -240.184)"/><path d="M258.012 448.945C258.012 448.945 288.699 452.781 294.179 459.905 294.179 459.908 293.082 450.589 258.012 448.945Z" fill="#F5874C" transform="matrix(1 0 0 1.00262 100.913 -235.36)"/><path d="M252.04 402.283 252.057 402.283C254.539 403.088 256.62 404.809 257.876 407.097L257.876 407.102C262.216 422.151 266.139 461.661 266.139 461.661L263.948 462.21C263.948 462.21 260.031 413.299 252.04 402.283Z" fill="#F5874C" transform="matrix(1 0 0 1.00262 96.6213 -268.987)"/><path d="M267.688 394.648C271.339 396.676 271.546 401.02 271.546 401.02L275.167 465.505 272.977 465.505C272.977 465.505 271.518 408.583 267.688 394.648Z" fill="#F5874C" transform="matrix(1 0 0 1.00262 107.868 -274.489)"/><path d="M282.831 401.03C284.442 401.861 285.551 403.42 285.81 405.214L283.794 462.62C283.767 462.752 283.739 462.88 283.706 463.012 283.591 463.511 280.966 461.99 280.966 461.99 280.966 461.99 285.717 414.556 282.831 401.03Z" fill="#F5874C" transform="matrix(1 0 0 1.00262 117.413 -269.889)"/><path d="M236.333 448.819C236.333 448.819 247.839 452.654 249.483 455.394L247.839 449.915C247.839 449.915 240.715 445.536 236.333 448.819Z" fill="#FBCE97" transform="matrix(1 0 0 1.00262 85.3312 -236.332)"/><path d="M253.788 450.36 249.403 414.197C249.403 414.197 252.692 417.483 252.692 418.58 252.692 419.677 255.432 450.363 255.432 450.363Z" fill="#FBCE97" transform="matrix(1 0 0 1.00262 94.7259 -260.403)"/><path d="M262.157 420.262 262.157 401.083 264.896 398.888Z" fill="#FBCE97" transform="matrix(1 0 0 1.00262 103.892 -271.431)"/><path d="M370.846 399.875C371.379 400.022 371.904 400.2 372.417 400.409 380.229 403.582 376.844 411.324 376.844 411.324L368.222 447.953 368.122 448.369C368.123 448.38 368.121 448.391 368.117 448.401L370.532 448.789 379.862 450.293 385.019 451.126 382.839 455.489 394.289 457.669 392.239 464.519C392.431 466.732 392.6 469.622 392.714 473.402 393.145 487.655 393.958 503.817 394.144 507.416 394.171 507.894 394.182 508.152 394.182 508.152L385.862 521.369 387.329 555.627 382.847 555.696 382.453 555.701 346.707 556.231 346.313 556.236 337.65 556.361 338.631 519.163 320.518 505.457 320.486 504.906 320.376 503.116 320.376 503.111 319.051 480.985 327.295 480.348 327.524 480.331 328.593 480.25 328.228 477.076 327.982 474.944 327.509 470.86 325.998 457.807 320.678 416.232C320.678 416.232 318.497 406.418 326.678 405.327 327.798 405.167 328.93 405.103 330.062 405.136 335.651 405.354 337.747 408.761 338.672 415.686 339.343 420.697 341.851 438.805 343.696 452.082 344.617 458.706 345.368 464.132 345.648 466.121 345.706 466.557 345.748 466.83 345.756 466.912 345.758 466.921 345.76 466.93 345.76 466.94L346.851 466.394 350.2 449.649 358.847 406.417C358.847 406.417 361.032 397.148 370.846 399.875Z" fill="#F9BE78" transform="matrix(1 0 0 1.00262 144.785 -271.084)"/><path d="M354.232 433.37 354.187 433.958C354.187 433.958 353.948 433.551 354.232 433.37Z" fill="#F69C5D" transform="matrix(1 0 0 1.00262 169.974 -246.585)"/><path d="M354.224 432.728 354.234 432.649 354.219 432.84Z" fill="#F69C5D" transform="matrix(1 0 0 1.00262 170.065 -247.104)"/><path d="M354.26 432.362 354.27 432.362 354.231 432.788Z" fill="#F69C5D" transform="matrix(1 0 0 1.00262 170.073 -247.311)"/><path d="M360.038 438.208 356.766 452.381 324.051 453.472 323.845 452.431 324.074 452.414 325.143 452.333 324.777 449.159 324.532 447.027 324.059 442.943C326.233 441.586 331.185 439.962 342.312 438.996 342.336 438.997 342.359 438.995 342.382 438.991 347.082 438.591 352.884 438.306 360.038 438.208Z" fill="#F9AB69" transform="matrix(1 0 0 1.00262 148.232 -243.098)"/><path d="M350.941 427.581 351.59 427.681 351.49 428.129 353.906 428.516 363.236 430.02 368.393 430.853 366.212 435.216 377.663 437.397 375.606 444.247C375.798 446.459 375.966 449.35 376.081 453.129 376.511 467.383 377.324 483.544 377.51 487.143 371.773 486.052 357.097 482.917 352.309 478.566 352.309 478.566 344.675 483.473 342.495 478.566 340.315 473.658 350.672 476.929 349.856 467.388 349.856 467.388 355.853 457.028 358.579 446.669 361.304 436.31 360.215 432.496 360.215 432.496L349.856 430.859Z" fill="#F9AB69" transform="matrix(1 0 0 1.00262 161.418 -250.756)"/><path d="M362.12 446.328C365.545 446.82 367.01 447.797 368.482 455.139 369.143 458.454 368.414 460.665 367.411 462.104 366.701 463.134 365.715 463.944 364.566 464.438L320.516 471.785 319.199 449.828 319.048 447.312C319.048 447.312 358.692 445.835 362.12 446.328Z" fill="#F9BE78" transform="matrix(1 0 0 1.00262 144.785 -237.318)"/><path d="M362.12 446.328C365.545 446.82 367.01 447.797 368.482 455.139 369.143 458.454 368.414 460.665 367.411 462.104 369.506 449.247 361.874 447.553 361.874 447.553L319.199 449.828 319.048 447.312C319.048 447.312 358.692 445.835 362.12 446.328Z" fill="#F69C5D" transform="matrix(1 0 0 1.00262 144.785 -237.318)"/><path d="M321.817 465.184 332.097 462.247C332.097 462.247 333.565 452.459 332.097 450.501 330.629 448.544 321.329 449.522 321.329 449.522Z" fill="#FBCE97" transform="matrix(1 0 0 1.00262 146.422 -235.121)"/><path d="M350.105 460.722C349.978 461.194 342.763 462.679 342.763 462.679 342.763 462.679 340.806 464.147 339.826 459.741 338.846 455.336 337.38 448.973 339.826 448.484 342.75 448.136 345.693 447.972 348.637 447.993 350.767 451.882 351.294 456.45 350.105 460.722Z" fill="#FCDCB6" transform="matrix(1 0 0 1.00262 158.757 -236.045)"/><path d="M351.983 502.526 357.367 502.526 358.346 476.096 350.515 471.205Z" fill="#FBCE97" transform="matrix(1 0 0 1.00262 167.402 -219.319)"/><path d="M337.7 471.123C338.189 471.614 344.063 471.123 344.063 471.123L339.172 468.677 333.299 462.804 329.873 462.804Z" fill="#FBCE97" transform="matrix(1 0 0 1.00262 152.563 -225.373)"/><path d="M379.564 437.098 379.564 438.187 374.656 461.634 377.382 445.82 369.205 469.267C368.618 470.445 367.885 471.544 367.023 472.539 367.023 472.539 370.295 480.723 370.295 485.624L367.023 485.624C367.255 481.686 366.506 477.751 364.842 474.174 364.842 474.173 360.48 474.173 359.935 473.628 359.935 473.628 364.298 473.084 364.842 471.993L329.401 477.444 345.211 491.078 354.481 491.622 345.756 494.894 345.756 529.119 337.092 529.244 338.074 492.046 319.962 478.339 319.929 477.788 319.819 475.999 319.819 475.994 320.675 475.263 364.291 468.721C364.291 468.721 369.742 463.268 364.291 456.725L363.2 454C363.2 454 367.562 453.454 368.653 459.997 368.975 461.68 369.203 463.379 369.334 465.087Z" fill="#F5874C" transform="matrix(1 0 0 1.00262 145.339 -243.898)"/><path d="M352.208 453.439 353.447 453.854C353.023 453.75 352.609 453.611 352.208 453.439Z" fill="#F5874C" transform="matrix(1 0 0 1.00262 168.619 -232.122)"/><path d="M373.091 433.266 373.315 433.309 371.258 440.158C371.45 442.371 371.618 445.262 371.733 449.041 372.163 463.295 372.977 479.456 373.162 483.055 373.189 483.533 373.2 483.791 373.2 483.791L364.88 497.008 366.348 531.266 361.865 531.336 361.865 497.651 348.235 493.834 358.049 493.288 366.233 481.838 367.322 457.301 362.961 465.485C362.961 465.485 362.689 470.118 356.689 468.48L356.308 468.355C358.155 468.828 361.526 469.085 362.688 465.209 364.323 459.755 370.321 440.671 370.321 440.671Z" fill="#F5874C" transform="matrix(1 0 0 1.00262 165.762 -246.66)"/><path d="M363.76 430.278 356.673 458.086 325.049 459.722 323.98 458.119 325.049 458.037 324.683 454.863 355.582 456.995Z" fill="#F5874C" transform="matrix(1 0 0 1.00262 148.328 -248.813)"/><path d="M325.459 402.726C331.048 402.944 333.144 406.351 334.069 413.276 334.74 418.287 337.248 436.395 339.092 449.672 340.014 456.295 340.765 461.722 341.045 463.711L336.796 461.258 330.254 412.184C329.664 408.614 327.99 405.312 325.459 402.726Z" fill="#F6985A" transform="matrix(1 0 0 1.00262 149.393 -268.668)"/><path d="M355.037 399.975C362.848 403.149 359.464 410.891 359.464 410.891L350.842 447.52 350.742 447.935C350.743 447.947 350.741 447.958 350.737 447.968L346.374 465.416 343.228 465.689 355.644 416.345C355.644 416.345 358.71 404.097 355.037 399.975Z" fill="#F6985A" transform="matrix(1 0 0 1.00262 162.166 -270.65)"/><path d="M353.859 466.115C353.859 466.115 356.587 467.752 358.221 462.299 359.856 456.845 366.405 437.762 366.405 437.762L357.68 435.036 352.229 462.299C352.229 462.299 351.679 466.115 353.859 466.115Z" fill="#F9BE78" transform="matrix(1 0 0 1.00262 168.587 -245.384)"/><path d="M346.805 438.992 354.439 440.628 356.075 435.72 347.35 434.084Z" fill="#FCCD95" transform="matrix(1 0 0 1.00262 164.736 -246.069)"/></g></svg>