<svg width="106" height="167" xmlns="http://www.w3.org/2000/svg" xmlns:xlink="http://www.w3.org/1999/xlink" xml:space="preserve" overflow="hidden"><defs><clipPath id="clip0"><rect x="434" y="120" width="106" height="167"/></clipPath></defs><g clip-path="url(#clip0)" transform="translate(-434 -120)"><path d="M241.132 409.412C241.144 409.632 241.154 409.856 241.151 410.097L240.5 416.47 240.44 417.048 240.433 417.14 240.418 417.247 240.404 417.4 240.409 417.4 255.682 418.242C255.682 418.242 255.895 418.242 256.191 419.005 256.811 420.588 257.812 425.419 258.087 440.205 258.498 462.146 259.538 487.416 259.538 487.416L248.032 505.232 249.49 551.779 242.869 551.803 194.316 551.96 182.018 551.998 183.93 501.502 159.548 482.606 159.51 481.855 157.938 449.352 170.909 448.505 168.599 426.303 168.5 425.337 168.493 425.291 167.619 416.893 180.691 413.786 189.049 411.796 191.615 411.188C191.615 411.188 191.975 408.866 195.306 408.238 196.771 407.964 199.783 407.446 202.7 406.955 206.41 406.332 209.96 405.75 209.96 405.75 211.603 405.443 213.295 405.533 214.896 406.012 215.899 406.35 216.573 407.292 216.571 408.351L216.571 408.358C216.576 408.399 216.578 408.441 216.576 408.482L216.656 408.471 217.095 408.397 226.646 406.738 234.559 405.366C234.559 405.366 240.695 404.216 241.132 409.412Z" fill="#F9BE78" transform="matrix(1 0 0 1.00289 30.0776 -266.766)"/><path d="M205.932 413.149 205.863 413.947C205.863 413.947 205.547 413.389 205.932 413.149Z" fill="#F69C5D" transform="matrix(1 0 0 1.00289 64.4329 -261.078)"/><path d="M182.099 408.708 185.651 446.636 180.983 447.913C180.983 447.913 178.952 422.325 171.175 411.306Z" fill="#F69C5D" transform="matrix(1 0 0 1.00289 39.5917 -264.28)"/><path d="M197.858 408.356 198.378 408.27C197.48 412.009 198.385 449.243 198.385 449.243L193.732 449.19C193.732 449.19 195.953 415.147 183.984 406.828 187.694 406.206 191.244 405.623 191.244 405.623 191.244 405.623 197.904 404.369 197.858 408.356Z" fill="#F69C5D" transform="matrix(1 0 0 1.00289 48.7954 -266.638)"/><path d="M216.838 409.412C216.651 411.271 216.439 413.688 216.191 416.47L216.146 417.048 216.139 417.14 216.115 417.4 215.993 418.815 215.993 418.822 215.924 419.62C214.727 433.888 213.13 454.851 212.593 462.895 211.795 474.85 205.716 482.756 193.83 475.973L191.741 473.86 191.906 469.969C191.906 469.969 200.546 470.069 201.24 467.419 201.24 467.419 216.327 423.222 202.352 406.742L210.264 405.37C210.264 405.37 216.401 404.216 216.838 409.412Z" fill="#F69C5D" transform="matrix(1 0 0 1.00289 54.3711 -266.766)"/><path d="M207.292 413.737 207.414 412.322 222.687 413.164 216.582 452.643C216.582 452.643 214.327 475.217 203.846 461.803 203.846 461.803 211.767 466.547 213.234 454.6 214.701 442.653 217.5 430.718 217.5 430.718 217.5 430.718 220.293 418.786 213.023 415.378 209.122 413.551 207.742 413.444 207.292 413.737Z" fill="#F69C5D" transform="matrix(1 0 0 1.00289 63.0719 -261.674)"/><path d="M205.931 412.278 205.946 412.171 205.923 412.431Z" fill="#F69C5D" transform="matrix(1 0 0 1.00289 64.5646 -261.783)"/><path d="M205.987 411.781 206 411.781 205.94 412.359Z" fill="#F69C5D" transform="matrix(1 0 0 1.00289 64.5776 -262.064)"/><path d="M168.807 441.815 164.083 416.915 166.813 441.792 169.471 441.823Z" fill="#F5874C" transform="matrix(1 0 0 1.00289 34.4919 -258.364)"/><path d="M178.606 408.708 182.806 447.974 181.445 446.131 176.04 409.312Z" fill="#F5874C" transform="matrix(1 0 0 1.00289 43.087 -264.28)"/><path d="M193.284 449.055 193.084 408.505 191.077 405.697 192.498 449.046Z" fill="#F5874C" transform="matrix(1 0 0 1.00289 53.8951 -266.45)"/><path d="M255.537 413.256C256.155 414.838 257.157 419.67 257.432 434.455 257.844 456.397 258.883 481.667 258.883 481.667L247.378 499.483 248.835 546.029 242.214 546.053 243.36 502.095 224.138 497.221 238.776 496.059 248.913 481.552 251.314 446.351 247.134 462.921C247.134 462.921 241.881 470.013 237.242 462.395 237.242 462.395 237.025 474.767 223.742 473.95 223.742 473.95 227.607 484.627 226.223 489.268L222.902 489.229C222.902 489.229 223.054 475.938 217.134 470.551L169.866 476.649 192.915 495.528 206.199 496.346 194.176 501.525 193.66 546.208 181.362 546.246 183.274 495.75 158.897 476.856 158.859 476.104 217.851 465.904C217.851 465.904 228.196 460.533 219.22 446.888L217.447 443.296C217.447 443.296 224.743 444.709 225.965 454.03 227.187 463.352 224.45 469.966 219.134 469.904 219.134 469.904 228.378 475.328 232.458 467.399 232.458 467.399 236.514 461.463 236.748 440.857L236.526 460.132C236.526 460.132 241.115 466.752 247.17 459.883Z" fill="#F5874C" transform="matrix(1 0 0 1.00289 30.7352 -261.001)"/><path d="M216.445 430.619C221.089 431.337 223.068 432.689 224.946 442.682 225.791 447.191 224.766 450.184 223.382 452.123 222.402 453.511 221.051 454.594 219.483 455.248L159.551 464.528 158.107 434.694 157.941 431.276C157.941 431.276 211.799 429.9 216.445 430.619Z" fill="#F9BE78" transform="matrix(1 0 0 1.00289 30.0776 -248.635)"/><path d="M216.445 430.619C221.089 431.337 223.068 432.689 224.946 442.682 225.791 447.191 224.766 450.184 223.382 452.123 226.428 434.696 216.098 432.277 216.098 432.277L158.112 434.692 157.946 431.274C157.946 431.274 211.799 429.9 216.445 430.619Z" fill="#F69C5D" transform="matrix(1 0 0 1.00289 30.0776 -248.635)"/><path d="M161.415 455.813 175.418 451.987C175.418 451.987 177.566 438.716 175.602 436.036 173.638 433.356 160.995 434.539 160.995 434.539Z" fill="#FBCE97" transform="matrix(1 0 0 1.00289 32.2718 -245.848)"/><path d="M199.921 450.162C199.743 450.801 189.921 452.705 189.921 452.705 189.921 452.705 187.239 454.669 185.979 448.671 184.719 442.673 182.825 434.011 186.156 433.386 189.486 432.76 198.129 432.859 198.129 432.859 200.96 438.172 201.603 444.381 199.921 450.162Z" fill="#FCDCB6" transform="matrix(1 0 0 1.00289 49.0149 -246.874)"/><path d="M201.793 507.026 209.104 507.111 210.847 471.236 200.289 464.467Z" fill="#FBCE97" transform="matrix(1 0 0 1.00289 60.5155 -224.085)"/><path d="M182.89 464.159C183.546 464.831 191.53 464.259 191.53 464.259L184.922 460.858 177.04 452.791 172.387 452.738Z" fill="#FBCE97" transform="matrix(1 0 0 1.00289 40.4598 -232.541)"/><path d="M193.274 422.609 206.583 421.433C206.583 421.433 207.987 414.801 205.329 414.772 202.671 414.743 193.344 416.628 193.344 416.628Z" fill="#FBCE97" transform="matrix(1 0 0 1.00289 55.4697 -259.909)"/><path d="M281.5 432.97 281.456 433.559C281.456 433.559 281.216 433.151 281.5 432.97Z" fill="#F69C5D" transform="matrix(1 0 0 1.00289 118.788 -246.79)"/><path d="M281.493 432.324 281.503 432.245 281.488 432.437Z" fill="#F69C5D" transform="matrix(1 0 0 1.00289 118.879 -247.312)"/><path d="M281.529 431.956 281.539 431.956 281.5 432.384Z" fill="#F69C5D" transform="matrix(1 0 0 1.00289 118.887 -247.52)"/><path d="M279.468 453.133 280.711 453.548C280.286 453.444 279.87 453.305 279.468 453.133Z" fill="#F5874C" transform="matrix(1 0 0 1.00289 117.427 -232.256)"/><path d="M290.36 393.959C291.742 393.975 293.1 394.321 294.321 394.967L294.326 394.967C297.976 396.995 298.184 401.338 298.184 401.338L301.776 465.763C301.793 466.055 301.532 465.899 301.809 465.806 302.537 465.703 303.276 465.703 304.004 465.806L306.507 412.645 306.517 412.433 306.517 412.416 306.584 411.068C306.584 411.068 307.625 403.454 314.696 404.456 316.225 404.633 317.698 405.137 319.015 405.935 320.651 406.884 321.752 408.54 321.993 410.416L319.978 467.998C320.486 468.209 321.005 468.392 321.533 468.545L321.533 469.643 327.997 434.819C327.997 434.819 329.45 429.659 334.193 430.792L334.198 430.792C334.304 430.809 334.409 430.835 334.511 430.869 337.205 431.64 338.347 433.043 338.834 434.167 339.08 434.709 339.198 435.302 339.178 435.897L331.546 479.942C331.646 483.035 331.764 486.159 331.885 489.183 332.295 499.308 332.744 508.28 332.876 510.855 332.903 511.337 332.914 511.596 332.914 511.596L324.556 524.875 326.028 559.299 321.525 559.369 321.126 559.376 285.211 559.906 284.812 559.913 276.106 560.037 277.092 522.665 267.166 515.155 258.893 508.894 258.888 508.784 239.655 494.516 239.65 494.511 239.633 494.501 237.151 492.659C237.151 492.659 225.098 489.373 233.317 484.442 241.536 479.511 250.847 483.344 250.847 483.344L257.568 486.812 266.065 491.202 266.34 491.345 267.829 492.111 267.539 489.799 267.047 485.85 267.02 485.608 266.768 483.588 266.526 479.391 266.395 478.241 265.92 474.137 265.765 472.796 264.402 461.022 259.065 419.25C259.065 419.25 256.875 409.388 265.092 408.293 265.867 408.185 266.648 408.119 267.43 408.093L267.447 408.093C269.966 408.97 272.049 410.783 273.265 413.156L273.265 413.161C277.603 428.994 281.525 467.455 281.525 467.455 282.244 467.222 282.977 467.04 283.721 466.909L282.024 401.914C282.024 401.914 282.876 393.712 290.36 393.959Z" fill="#F9BE78" transform="matrix(1 0 0 1.00289 82.1997 -274.915)"/><path d="M248.72 462.121C255.216 464.082 263.346 466.678 265.789 468.07L271.146 472.689 280.461 473.236 271.695 476.523 271.695 510.911 262.989 511.035 263.975 473.663Z" fill="#F5874C" transform="matrix(1 0 0 1.00289 95.3258 -225.776)"/><path d="M299.162 443.487C299.605 457.168 300.346 471.838 300.521 475.25 300.547 475.732 300.558 475.992 300.558 475.992L292.2 489.27 293.673 523.695 289.17 523.764 289.17 489.92 275.474 486.085 285.335 485.537 293.294 474.394 293.554 474.58Z" fill="#F5874C" transform="matrix(1 0 0 1.00289 114.555 -239.208)"/><path d="M279.241 502.454 284.651 502.454 285.634 475.899 277.766 470.982Z" fill="#FBCE97" transform="matrix(1 0 0 1.00289 116.203 -219.389)"/><path d="M264.891 470.902C265.383 471.394 271.285 470.902 271.285 470.902L266.367 468.442 260.467 462.541 257.023 462.541Z" fill="#FBCE97" transform="matrix(1 0 0 1.00289 101.294 -225.473)"/><path d="M235.814 452.457C236.838 453.065 269.49 472.523 270.737 473.198L263.326 473.098 255.053 466.837 255.048 466.727Z" fill="#F5874C" transform="matrix(1 0 0 1.00289 86.0492 -232.743)"/><path d="M268.408 437.402 287.033 435.758C287.033 435.758 289.774 450.502 301.278 453.479 301.278 453.479 308.947 470.747 305.112 474.321L294.702 472.534 289.224 478.489C289.224 478.489 274.982 457.649 261.286 457.649 259.718 457.649 258.392 457.673 257.259 457.714 255.758 457.739 254.26 457.872 252.778 458.113L252.286 453.823 252.006 451.363 251.765 446.801 251.633 445.551 251.158 441.092 251.004 439.632Z" fill="#F9AB69" transform="matrix(1 0 0 1.00289 96.9682 -244.779)"/><path d="M277.077 458.085 275.757 404.697 273.242 458.085Z" fill="#F9AB69" transform="matrix(1 0 0 1.00289 112.952 -267.171)"/><path d="M296.331 415.453C291.779 417.316 283.124 457.043 283.124 457.043L283.124 456.621C283.124 456.614 283.125 456.607 283.129 456.6L290.134 419.482C290.134 419.482 291.587 414.32 296.331 415.453Z" fill="#F9AB69" transform="matrix(1 0 0 1.00289 120.054 -259.533)"/><path d="M258.422 446.277 257.134 451.815 252.943 469.832C252.943 469.832 250.753 457.781 251.846 455.59L251.177 453.585 252.94 454.494 252.651 452.182 252.159 448.233Z" fill="#F9AB69" transform="matrix(1 0 0 1.00289 97.0939 -237.197)"/><path d="M259.219 448.827C259.219 448.827 280.037 463.069 282.776 470.739 282.777 470.739 283.322 456.494 259.219 448.827Z" fill="#F5874C" transform="matrix(1 0 0 1.00289 102.872 -235.36)"/><path d="M254.686 446.934 253.377 464.975C253.377 464.975 252.154 458.122 251.34 453.251L252.829 454.017 252.539 451.705 252.047 447.756 252.019 447.514C252.89 447.247 253.782 447.053 254.686 446.934Z" fill="#F5874C" transform="matrix(1 0 0 1.00289 97.2086 -236.724)"/><path d="M297.815 417.349C298.062 417.892 298.18 418.484 298.16 419.079L290.535 463.125C290.634 466.218 290.752 469.342 290.874 472.366L287.514 478.851 288.732 461.595Z" fill="#F5874C" transform="matrix(1 0 0 1.00289 123.21 -258.05)"/><path d="M263.681 442.133C263.681 442.133 286.142 459.115 296.003 451.446 296.003 451.446 286.689 455.28 263.681 442.133Z" fill="#F5874C" transform="matrix(1 0 0 1.00289 106.079 -240.184)"/><path d="M257.943 448.827C257.943 448.827 288.623 452.661 294.101 459.783 294.101 459.786 293.004 450.47 257.943 448.827Z" fill="#F5874C" transform="matrix(1 0 0 1.00289 101.955 -235.36)"/><path d="M251.974 402.176 251.99 402.176C254.472 402.981 256.552 404.702 257.808 406.989L257.808 406.994C262.146 422.04 266.068 461.539 266.068 461.539L263.878 462.087C263.878 462.087 259.962 413.189 251.974 402.176Z" fill="#F5874C" transform="matrix(1 0 0 1.00289 97.6646 -268.987)"/><path d="M267.617 394.543C271.267 396.571 271.475 400.914 271.475 400.914L275.095 465.382 272.904 465.382C272.904 465.382 271.447 408.475 267.617 394.543Z" fill="#F5874C" transform="matrix(1 0 0 1.00289 108.909 -274.489)"/><path d="M282.756 400.924C284.366 401.755 285.476 403.313 285.734 405.107L283.719 462.497C283.692 462.629 283.664 462.758 283.631 462.89 283.516 463.388 280.892 461.868 280.892 461.868 280.892 461.868 285.641 414.446 282.756 400.924Z" fill="#F5874C" transform="matrix(1 0 0 1.00289 118.451 -269.889)"/><path d="M236.27 448.7C236.27 448.7 247.774 452.534 249.417 455.273L247.774 449.795C247.774 449.795 240.651 445.418 236.27 448.7Z" fill="#FBCE97" transform="matrix(1 0 0 1.00289 86.3775 -236.332)"/><path d="M253.721 450.24 249.337 414.087C249.337 414.087 252.625 417.373 252.625 418.469 252.625 419.566 255.364 450.243 255.364 450.243Z" fill="#FBCE97" transform="matrix(1 0 0 1.00289 95.7698 -260.403)"/><path d="M262.087 420.151 262.087 400.977 264.826 398.782Z" fill="#FBCE97" transform="matrix(1 0 0 1.00289 104.934 -271.431)"/><path d="M370.748 399.769C371.281 399.916 371.805 400.094 372.318 400.303 380.128 403.476 376.744 411.215 376.744 411.215L368.124 447.835 368.025 448.25C368.025 448.261 368.024 448.272 368.02 448.283L370.434 448.67 379.762 450.174 384.917 451.007 382.737 455.368 394.185 457.548 392.136 464.396C392.327 466.608 392.496 469.498 392.611 473.277 393.041 487.526 393.854 503.684 394.039 507.282 394.066 507.76 394.077 508.017 394.077 508.017L385.76 521.231 387.226 555.479 382.745 555.549 382.352 555.554 346.615 556.084 346.222 556.089 337.561 556.214 338.542 519.026 320.434 505.323 320.401 504.772 320.291 502.983 320.291 502.978 318.967 480.858 327.209 480.22 327.437 480.203 328.506 480.123 328.141 476.95 327.895 474.818 327.422 470.735 325.912 457.686 320.593 416.122C320.593 416.122 318.413 406.31 326.591 405.22 327.711 405.059 328.843 404.996 329.975 405.029 335.562 405.247 337.658 408.653 338.583 415.576 339.253 420.586 341.761 438.689 343.605 451.963 344.526 458.584 345.277 464.009 345.556 465.998 345.614 466.434 345.656 466.706 345.664 466.788 345.667 466.797 345.669 466.806 345.669 466.816L346.76 466.27 350.107 449.53 358.752 406.309C358.752 406.309 360.936 397.043 370.748 399.769Z" fill="#F9BE78" transform="matrix(1 0 0 1.00289 145.815 -271.084)"/><path d="M354.138 433.255 354.093 433.844C354.093 433.844 353.854 433.436 354.138 433.255Z" fill="#F69C5D" transform="matrix(1 0 0 1.00289 170.998 -246.585)"/><path d="M354.13 432.613 354.14 432.534 354.125 432.725Z" fill="#F69C5D" transform="matrix(1 0 0 1.00289 171.089 -247.104)"/><path d="M354.166 432.247 354.176 432.247 354.137 432.673Z" fill="#F69C5D" transform="matrix(1 0 0 1.00289 171.097 -247.311)"/><path d="M359.943 438.092 356.672 452.261 323.965 453.352 323.759 452.311 323.988 452.294 325.056 452.213 324.691 449.04 324.446 446.909 323.973 442.826C326.147 441.469 331.097 439.845 342.222 438.879 342.245 438.88 342.268 438.879 342.291 438.874 346.99 438.474 352.79 438.19 359.943 438.092Z" fill="#F9AB69" transform="matrix(1 0 0 1.00289 149.262 -243.098)"/><path d="M350.849 427.468 351.497 427.567 351.397 428.015 353.812 428.403 363.139 429.906 368.295 430.739 366.115 435.101 377.563 437.281 375.506 444.129C375.699 446.341 375.866 449.231 375.981 453.009 376.411 467.259 377.224 483.416 377.41 487.014 371.675 485.924 357.002 482.789 352.216 478.439 352.216 478.439 344.583 483.345 342.404 478.439 340.225 473.533 350.579 476.803 349.763 467.264 349.763 467.264 355.759 456.907 358.484 446.551 361.209 436.194 360.12 432.382 360.12 432.382L349.763 430.745Z" fill="#F9AB69" transform="matrix(1 0 0 1.00289 162.444 -250.756)"/><path d="M362.024 446.21C365.448 446.701 366.913 447.678 368.385 455.019 369.045 458.333 368.316 460.543 367.313 461.982 366.604 463.012 365.618 463.821 364.47 464.315L320.432 471.66 319.115 449.709 318.964 447.193C318.964 447.193 358.597 445.717 362.024 446.21Z" fill="#F9BE78" transform="matrix(1 0 0 1.00289 145.815 -237.318)"/><path d="M362.024 446.21C365.448 446.701 366.913 447.678 368.385 455.019 369.045 458.333 368.316 460.543 367.313 461.982 369.409 449.128 361.778 447.435 361.778 447.435L319.115 449.709 318.964 447.193C318.964 447.193 358.597 445.717 362.024 446.21Z" fill="#F69C5D" transform="matrix(1 0 0 1.00289 145.815 -237.318)"/><path d="M321.732 465.061 332.009 462.124C332.009 462.124 333.477 452.339 332.009 450.382 330.541 448.425 321.244 449.403 321.244 449.403Z" fill="#FBCE97" transform="matrix(1 0 0 1.00289 147.452 -235.121)"/><path d="M350.012 460.6C349.886 461.072 342.673 462.556 342.673 462.556 342.673 462.556 340.716 464.024 339.736 459.62 338.756 455.215 337.29 448.854 339.736 448.366 342.659 448.017 345.601 447.853 348.545 447.875 350.674 451.763 351.201 456.329 350.012 460.6Z" fill="#FCDCB6" transform="matrix(1 0 0 1.00289 159.784 -236.045)"/><path d="M351.89 502.392 357.272 502.392 358.251 475.97 350.423 471.081Z" fill="#FBCE97" transform="matrix(1 0 0 1.00289 168.427 -219.319)"/><path d="M337.611 470.999C338.1 471.49 343.972 470.999 343.972 470.999L339.082 468.553 333.21 462.681 329.786 462.681Z" fill="#FBCE97" transform="matrix(1 0 0 1.00289 153.591 -225.373)"/><path d="M379.463 436.983 379.463 438.071 374.557 461.512 377.282 445.702 369.107 469.143C368.52 470.32 367.787 471.419 366.926 472.414 366.926 472.414 370.197 480.596 370.197 485.496L366.926 485.496C367.158 481.558 366.409 477.625 364.746 474.048 364.746 474.048 360.385 474.048 359.84 473.502 359.84 473.502 364.201 472.958 364.746 471.868L329.314 477.318 345.119 490.948 354.387 491.492 345.664 494.763 345.664 528.979 337.003 529.104 337.985 491.916 319.877 478.213 319.844 477.662 319.734 475.873 319.734 475.868 320.59 475.138 364.194 468.597C364.194 468.597 369.644 463.145 364.194 456.604L363.104 453.879C363.104 453.879 367.465 453.334 368.556 459.875 368.878 461.557 369.105 463.256 369.236 464.964Z" fill="#F5874C" transform="matrix(1 0 0 1.00289 146.369 -243.898)"/><path d="M352.115 453.319 353.353 453.734C352.93 453.63 352.515 453.491 352.115 453.319Z" fill="#F5874C" transform="matrix(1 0 0 1.00289 169.643 -232.122)"/><path d="M372.992 433.151 373.216 433.194 371.16 440.042C371.351 442.254 371.52 445.144 371.635 448.922 372.065 463.172 372.878 479.329 373.064 482.927 373.091 483.405 373.102 483.663 373.102 483.663L364.784 496.877 366.251 531.125 361.769 531.195 361.769 497.519 348.143 493.704 357.954 493.158 366.136 481.71 367.224 457.18 362.865 465.362C362.865 465.362 362.593 469.994 356.595 468.355L356.214 468.231C358.061 468.704 361.43 468.961 362.592 465.086 364.226 459.634 370.223 440.555 370.223 440.555Z" fill="#F5874C" transform="matrix(1 0 0 1.00289 166.787 -246.66)"/><path d="M363.663 430.164 356.579 457.964 324.963 459.6 323.894 457.997 324.963 457.916 324.597 454.743 355.488 456.874Z" fill="#F5874C" transform="matrix(1 0 0 1.00289 149.358 -248.813)"/><path d="M325.373 402.619C330.96 402.837 333.056 406.243 333.981 413.166 334.651 418.176 337.159 436.279 339.003 449.553 339.924 456.174 340.675 461.599 340.954 463.588L336.707 461.135 330.166 412.075C329.577 408.506 327.903 405.204 325.373 402.619Z" fill="#F6985A" transform="matrix(1 0 0 1.00289 150.422 -268.668)"/><path d="M354.943 399.87C362.752 403.042 359.369 410.782 359.369 410.782L350.749 447.402 350.649 447.817C350.65 447.828 350.648 447.839 350.644 447.85L346.283 465.293 343.138 465.566 355.55 416.234C355.55 416.234 358.615 403.99 354.943 399.87Z" fill="#F6985A" transform="matrix(1 0 0 1.00289 163.192 -270.65)"/><path d="M353.765 465.992C353.765 465.992 356.492 467.628 358.126 462.176 359.761 456.724 366.308 437.646 366.308 437.646L357.586 434.921 352.136 462.176C352.136 462.176 351.586 465.992 353.765 465.992Z" fill="#F9BE78" transform="matrix(1 0 0 1.00289 169.611 -245.384)"/><path d="M346.714 438.875 354.345 440.511 355.98 435.605 347.258 433.969Z" fill="#FCCD95" transform="matrix(1 0 0 1.00289 165.762 -246.069)"/></g></svg>